<svg xmlns="http://www.w3.org/2000/svg" width="1200" height="630" viewBox="0 0 1200 630">
  <defs>
    <linearGradient id="bg" x1="0%" y1="0%" x2="100%" y2="100%">
      <stop offset="0%" stop-color="#1a365d"/>
      <stop offset="50%" stop-color="#2b6cb0"/>
      <stop offset="100%" stop-color="#319795"/>
    </linearGradient>
    <linearGradient id="logoGrad" x1="0%" y1="0%" x2="100%" y2="100%">
      <stop offset="0%" stop-color="#63b3ed"/>
      <stop offset="100%" stop-color="#319795"/>
    </linearGradient>
  </defs>

  <!-- Background -->
  <rect width="1200" height="630" fill="url(#bg)"/>

  <!-- Subtle grid pattern -->
  <g opacity="0.04">
    <line x1="0" y1="0" x2="0" y2="630" stroke="white" stroke-width="1"/>
    <line x1="40" y1="0" x2="40" y2="630" stroke="white" stroke-width="1"/>
    <line x1="80" y1="0" x2="80" y2="630" stroke="white" stroke-width="1"/>
    <line x1="120" y1="0" x2="120" y2="630" stroke="white" stroke-width="1"/>
    <line x1="160" y1="0" x2="160" y2="630" stroke="white" stroke-width="1"/>
    <line x1="200" y1="0" x2="200" y2="630" stroke="white" stroke-width="1"/>
    <line x1="240" y1="0" x2="240" y2="630" stroke="white" stroke-width="1"/>
    <line x1="280" y1="0" x2="280" y2="630" stroke="white" stroke-width="1"/>
    <line x1="320" y1="0" x2="320" y2="630" stroke="white" stroke-width="1"/>
    <line x1="360" y1="0" x2="360" y2="630" stroke="white" stroke-width="1"/>
    <line x1="400" y1="0" x2="400" y2="630" stroke="white" stroke-width="1"/>
    <line x1="440" y1="0" x2="440" y2="630" stroke="white" stroke-width="1"/>
    <line x1="480" y1="0" x2="480" y2="630" stroke="white" stroke-width="1"/>
    <line x1="520" y1="0" x2="520" y2="630" stroke="white" stroke-width="1"/>
    <line x1="560" y1="0" x2="560" y2="630" stroke="white" stroke-width="1"/>
    <line x1="600" y1="0" x2="600" y2="630" stroke="white" stroke-width="1"/>
    <line x1="640" y1="0" x2="640" y2="630" stroke="white" stroke-width="1"/>
    <line x1="680" y1="0" x2="680" y2="630" stroke="white" stroke-width="1"/>
    <line x1="720" y1="0" x2="720" y2="630" stroke="white" stroke-width="1"/>
    <line x1="760" y1="0" x2="760" y2="630" stroke="white" stroke-width="1"/>
    <line x1="800" y1="0" x2="800" y2="630" stroke="white" stroke-width="1"/>
    <line x1="840" y1="0" x2="840" y2="630" stroke="white" stroke-width="1"/>
    <line x1="880" y1="0" x2="880" y2="630" stroke="white" stroke-width="1"/>
    <line x1="920" y1="0" x2="920" y2="630" stroke="white" stroke-width="1"/>
    <line x1="960" y1="0" x2="960" y2="630" stroke="white" stroke-width="1"/>
    <line x1="1000" y1="0" x2="1000" y2="630" stroke="white" stroke-width="1"/>
    <line x1="1040" y1="0" x2="1040" y2="630" stroke="white" stroke-width="1"/>
    <line x1="1080" y1="0" x2="1080" y2="630" stroke="white" stroke-width="1"/>
    <line x1="1120" y1="0" x2="1120" y2="630" stroke="white" stroke-width="1"/>
    <line x1="1160" y1="0" x2="1160" y2="630" stroke="white" stroke-width="1"/>
    <line x1="0" y1="0" x2="1200" y2="0" stroke="white" stroke-width="1"/>
    <line x1="0" y1="40" x2="1200" y2="40" stroke="white" stroke-width="1"/>
    <line x1="0" y1="80" x2="1200" y2="80" stroke="white" stroke-width="1"/>
    <line x1="0" y1="120" x2="1200" y2="120" stroke="white" stroke-width="1"/>
    <line x1="0" y1="160" x2="1200" y2="160" stroke="white" stroke-width="1"/>
    <line x1="0" y1="200" x2="1200" y2="200" stroke="white" stroke-width="1"/>
    <line x1="0" y1="240" x2="1200" y2="240" stroke="white" stroke-width="1"/>
    <line x1="0" y1="280" x2="1200" y2="280" stroke="white" stroke-width="1"/>
    <line x1="0" y1="320" x2="1200" y2="320" stroke="white" stroke-width="1"/>
    <line x1="0" y1="360" x2="1200" y2="360" stroke="white" stroke-width="1"/>
    <line x1="0" y1="400" x2="1200" y2="400" stroke="white" stroke-width="1"/>
    <line x1="0" y1="440" x2="1200" y2="440" stroke="white" stroke-width="1"/>
    <line x1="0" y1="480" x2="1200" y2="480" stroke="white" stroke-width="1"/>
    <line x1="0" y1="520" x2="1200" y2="520" stroke="white" stroke-width="1"/>
    <line x1="0" y1="560" x2="1200" y2="560" stroke="white" stroke-width="1"/>
    <line x1="0" y1="600" x2="1200" y2="600" stroke="white" stroke-width="1"/>
  </g>

  <!-- Decorative geometric elements -->
  <g opacity="0.06">
    <path d="M900 50 L1050 350 L750 350 Z" fill="none" stroke="white" stroke-width="2"/>
    <path d="M950 100 L1050 300 L850 300 Z" fill="none" stroke="white" stroke-width="1.5"/>
    <circle cx="1100" cy="500" r="120" fill="none" stroke="white" stroke-width="1.5"/>
    <circle cx="1100" cy="500" r="80" fill="none" stroke="white" stroke-width="1"/>
  </g>

  <!-- Logo mark (enlarged version of logo.svg) -->
  <g transform="translate(80, 180)">
    <rect width="100" height="100" rx="20" fill="rgba(255,255,255,0.1)"/>
    <path d="M20 70 L50 20 L80 70 Z" fill="none" stroke="#63b3ed" stroke-width="5" stroke-linejoin="round"/>
    <line x1="28" y1="55" x2="72" y2="55" stroke="#319795" stroke-width="4"/>
    <line x1="32" y1="65" x2="68" y2="65" stroke="#319795" stroke-width="4" opacity="0.6"/>
    <circle cx="50" cy="37" r="6" fill="#63b3ed"/>
  </g>

  <!-- Title -->
  <text x="200" y="232" font-family="-apple-system, BlinkMacSystemFont, 'Segoe UI', Roboto, sans-serif" font-size="72" font-weight="800" fill="white" letter-spacing="-1">AEEF</text>

  <!-- Subtitle line 1 -->
  <text x="82" y="330" font-family="-apple-system, BlinkMacSystemFont, 'Segoe UI', Roboto, sans-serif" font-size="36" font-weight="600" fill="white" opacity="0.95">Enterprise Standards for</text>

  <!-- Subtitle line 2 -->
  <text x="82" y="380" font-family="-apple-system, BlinkMacSystemFont, 'Segoe UI', Roboto, sans-serif" font-size="36" font-weight="600" fill="white" opacity="0.95">AI-Accelerated Engineering</text>

  <!-- Divider line -->
  <line x1="82" y1="420" x2="500" y2="420" stroke="url(#logoGrad)" stroke-width="3" opacity="0.8"/>

  <!-- Five Pillars tagline -->
  <text x="82" y="470" font-family="-apple-system, BlinkMacSystemFont, 'Segoe UI', Roboto, sans-serif" font-size="20" fill="white" opacity="0.7">Five Pillars &#x2022; Maturity Model &#x2022; KPI Framework &#x2022; Production Standards</text>

  <!-- Pillar indicator dots -->
  <g transform="translate(82, 510)">
    <circle cx="0" cy="0" r="8" fill="#63b3ed"/>
    <circle cx="28" cy="0" r="8" fill="#63b3ed" opacity="0.85"/>
    <circle cx="56" cy="0" r="8" fill="#319795"/>
    <circle cx="84" cy="0" r="8" fill="#319795" opacity="0.85"/>
    <circle cx="112" cy="0" r="8" fill="#38a169"/>
  </g>

  <!-- URL -->
  <text x="82" y="580" font-family="-apple-system, BlinkMacSystemFont, 'Segoe UI', Roboto, sans-serif" font-size="22" fill="white" opacity="0.5">aeef.ai</text>

  <!-- Open Source badge -->
  <g transform="translate(920, 540)">
    <rect width="200" height="40" rx="20" fill="rgba(255,255,255,0.12)"/>
    <text x="100" y="26" font-family="-apple-system, BlinkMacSystemFont, 'Segoe UI', Roboto, sans-serif" font-size="16" font-weight="600" fill="white" opacity="0.8" text-anchor="middle">Open Source Framework</text>
  </g>
</svg>
